<svg xmlns="http://www.w3.org/2000/svg" xmlns:v="https://svgstorm.com"
viewBox = "0 0 1080 1080"
width="1080"
height="1080">
<g fill="None" fill-opacity="0.0" stroke="#000000" stroke-opacity="0.00" stroke-width="0.3"><path d="
M 0.00 1080.00 
L 1080.00 1080.00
L 1080.00 0.00
L 0.00 0.00
L 0.00 1080.00
M 679.00 95.00 
C 694.03 95.82 709.61 96.00 725.00 96.00
C 728.67 96.00 732.33 96.00 736.00 96.00
C 747.09 96.00 758.27 95.85 769.00 95.00
C 772.69 94.71 777.34 94.47 781.00 95.00
C 788.69 94.26 798.72 94.01 807.00 94.00 C 815.28 93.99 825.98 94.15 833.22 95.78 C 840.46 97.41 851.13 97.24 856.67 100.33 C 862.21 103.42 873.70 104.38 875.00 110.00
C 875.46 110.13 876.00 110.00 876.00 110.00
C 889.99 115.95 900.70 131.02 909.00 143.00
C 911.15 145.17 912.16 147.97 914.00 151.00
C 920.90 162.37 926.50 175.37 927.00 190.00
C 927.03 190.93 926.80 192.10 927.00 193.00
C 932.84 219.60 926.05 249.06 928.00 277.00 C 929.95 304.94 927.12 334.72 928.00 363.00 C 928.88 391.28 927.60 420.64 928.00 449.00 C 928.40 477.36 927.83 505.66 928.00 534.00 C 928.17 562.34 927.94 591.79 928.00 620.00 C 928.06 648.21 928.00 678.22 928.00 706.00 C 928.00 733.78 928.07 764.15 928.00 791.00 C 927.93 817.85 929.81 847.74 921.74 870.74 C 913.68 893.75 901.39 904.86 884.00 919.00
C 881.13 921.34 879.31 923.06 876.00 925.00
C 866.71 930.46 859.52 933.27 849.00 936.00
C 811.84 945.63 769.40 938.27 729.00 940.00 C 688.60 941.73 645.88 939.27 605.00 940.00 C 564.12 940.73 522.05 939.78 481.00 940.00 C 439.95 940.22 398.04 940.14 357.00 940.00 C 315.96 939.86 274.26 940.59 234.00 940.00
C 232.78 940.18 230.82 940.93 229.00 941.00
C 225.03 941.58 220.90 941.53 217.00 941.00
C 215.67 941.00 214.33 941.00 213.00 941.00
C 208.49 941.62 203.40 941.43 199.00 941.00
C 196.37 941.00 193.62 941.23 191.00 941.00
C 188.68 940.80 186.53 940.14 184.00 940.00
C 178.05 939.68 173.51 939.22 168.00 938.00
C 165.95 937.55 163.31 936.31 162.00 936.00
C 131.89 934.40 119.90 912.52 102.08 890.92 C 84.26 869.32 84.00 833.71 84.00 804.00
C 84.00 798.19 84.49 792.44 85.00 787.00
C 84.98 780.04 84.98 769.89 85.00 763.00
C 83.05 742.19 84.00 720.23 84.00 699.00
C 84.00 694.37 83.36 688.85 85.00 685.00
C 85.00 684.50 85.00 683.50 85.00 683.00
C 83.31 679.03 84.64 674.76 85.00 671.00
C 85.00 665.33 85.00 659.67 85.00 654.00
C 84.42 648.03 81.07 632.31 85.00 627.00
C 85.00 626.50 85.00 626.00 85.00 626.00
C 81.77 621.63 84.00 608.72 84.00 603.00
C 84.00 602.00 84.00 601.00 84.00 600.00
C 84.00 588.36 82.64 574.75 85.00 564.00
C 85.00 563.00 85.00 562.00 85.00 561.00
C 83.50 554.15 83.51 544.78 85.00 538.00
C 85.00 537.00 85.00 536.00 85.00 535.00
C 83.59 528.57 83.51 520.18 84.00 513.00 C 84.49 505.82 82.35 496.24 85.00 490.00
C 85.00 489.50 85.00 488.50 85.00 488.00
C 83.45 484.36 84.00 479.34 84.00 475.00
C 84.00 474.50 84.00 473.50 84.00 473.00
C 84.00 467.27 84.47 460.99 85.00 456.00
C 85.00 454.33 85.00 452.67 85.00 451.00
C 83.87 440.37 80.71 420.10 85.00 410.00
C 85.00 409.50 85.00 408.50 85.00 408.00
C 82.84 402.92 83.58 392.87 84.00 387.00 C 84.42 381.13 81.71 370.45 85.00 366.00
C 85.00 365.50 85.00 365.00 85.00 365.00
C 82.66 361.83 84.00 354.15 84.00 350.00
C 84.00 343.40 84.76 337.41 85.00 331.00
C 84.78 327.28 82.30 320.65 85.00 317.00
C 85.00 316.50 85.00 316.00 85.00 316.00
C 81.99 311.93 84.00 300.33 84.00 295.00
C 84.00 290.78 84.23 286.53 85.00 283.00
C 85.00 282.00 85.00 281.00 85.00 280.00
C 84.28 276.73 84.00 272.90 84.00 269.00
C 84.00 263.64 82.01 252.04 85.00 248.00
C 85.00 247.50 85.00 247.00 85.00 247.00
C 82.88 244.14 84.00 237.75 84.00 234.00
C 84.00 228.00 84.00 222.00 84.00 216.00
C 84.00 207.54 85.69 200.20 86.00 192.00
C 86.23 185.97 86.72 181.49 88.00 176.00
C 88.50 173.86 89.67 172.90 90.00 172.00
C 94.72 159.09 98.20 146.83 107.77 136.77 C 117.34 126.71 124.91 118.11 136.00 111.00
C 136.80 110.49 136.68 109.97 138.00 110.00
C 141.78 107.64 144.72 106.60 149.00 105.00
C 150.26 104.53 152.42 103.61 154.00 103.00
C 157.20 101.77 160.15 100.94 164.00 100.00
C 202.24 90.67 243.31 97.60 284.00 96.00 C 324.69 94.40 367.84 96.72 409.00 96.00 C 450.16 95.28 492.71 96.31 534.00 96.00 C 575.29 95.69 617.11 96.56 658.00 95.00
C 664.61 94.06 672.45 93.94 679.00 95.00 Z"/>
</g>
<g fill="None" fill-opacity="0.0" stroke="#3F0000" stroke-opacity="0.02" stroke-width="0.3"><path d="
M 658.00 95.00 
C 664.90 94.74 672.11 94.63 679.00 95.00
C 672.45 93.94 664.61 94.06 658.00 95.00 Z"/>
</g>
<g fill="None" fill-opacity="0.0" stroke="#EAF615" stroke-opacity="0.29" stroke-width="0.3"><path d="
M 781.00 95.00 
C 781.35 95.05 781.77 95.95 782.00 96.00
C 800.09 96.00 819.39 94.63 836.00 99.00
C 848.73 102.35 859.22 104.36 871.00 111.00
C 870.50 110.94 873.02 109.42 875.00 110.00
C 873.70 104.38 862.21 103.42 856.67 100.33 C 851.13 97.24 840.46 97.41 833.22 95.78 C 825.98 94.15 815.28 93.99 807.00 94.00 C 798.72 94.01 788.69 94.26 781.00 95.00 Z"/>
</g>
<g fill="None" fill-opacity="0.0" stroke="#EBF815" stroke-opacity="0.29" stroke-width="0.3"><path d="
M 164.00 100.00 
C 164.03 100.00 165.34 102.21 167.08 101.07 C 168.81 99.92 170.27 100.04 172.00 100.00
C 206.12 99.18 241.28 99.00 277.00 99.00 C 312.72 99.00 350.04 99.54 386.00 99.00 C 421.96 98.46 459.06 100.44 495.00 99.00 C 530.94 97.56 567.62 101.88 603.00 100.00 C 638.38 98.12 675.47 102.44 711.00 99.00
C 722.94 97.84 737.13 97.85 749.00 99.00
C 753.41 99.00 758.34 98.35 762.00 98.00
C 763.43 97.62 770.77 97.12 775.00 97.00
C 777.35 96.93 779.31 97.44 781.00 96.00
C 777.11 96.00 772.08 95.05 769.00 95.00
C 758.27 95.85 747.09 96.00 736.00 96.00
C 732.54 96.33 728.39 96.33 725.00 96.00
C 709.61 96.00 694.03 95.82 679.00 95.00
C 672.11 94.63 664.90 94.74 658.00 95.00
C 617.11 96.56 575.29 95.69 534.00 96.00 C 492.71 96.31 450.16 95.28 409.00 96.00 C 367.84 96.72 324.69 94.40 284.00 96.00 C 243.31 97.60 202.24 90.67 164.00 100.00
M 658.00 97.00 
C 652.58 99.28 645.18 97.37 639.00 98.00
C 644.42 95.72 651.83 97.63 658.00 97.00 Z"/>
</g>
<g fill="None" fill-opacity="0.0" stroke="#ECFA18" stroke-opacity="0.08" stroke-width="0.3"><path d="
M 781.00 96.00 
C 781.50 96.00 782.00 96.00 782.00 96.00
C 781.77 95.95 781.35 95.05 781.00 95.00
C 777.34 94.47 772.69 94.71 769.00 95.00
C 772.08 95.05 777.11 96.00 781.00 96.00 Z"/>
</g>
<g fill="None" fill-opacity="0.0" stroke="#937800" stroke-opacity="0.02" stroke-width="0.3"><path d="
M 736.00 96.00 
C 732.33 96.00 728.67 96.00 725.00 96.00
C 728.39 96.33 732.54 96.33 736.00 96.00 Z"/>
</g>
<g fill="None" fill-opacity="0.0" stroke="#ECFF11" stroke-opacity="0.79" stroke-width="0.3"><path d="
M 775.00 97.00 
C 773.15 97.24 770.48 97.97 768.00 98.00
C 789.35 100.07 813.82 96.52 836.00 99.00
C 819.39 94.63 800.09 96.00 782.00 96.00
C 782.00 96.00 781.50 96.00 781.00 96.00
C 779.31 97.44 777.35 96.93 775.00 97.00 Z"/>
</g>
<g fill="None" fill-opacity="0.0" stroke="#FAFF13" stroke-opacity="0.47" stroke-width="0.3"><path d="
M 658.00 97.00 
C 651.83 97.63 644.42 95.72 639.00 98.00
C 645.18 97.37 652.58 99.28 658.00 97.00 Z"/>
</g>
<g fill="None" fill-opacity="0.0" stroke="#F5FF12" stroke-opacity="0.57" stroke-width="0.3"><path d="
M 762.00 98.00 
C 763.96 97.81 766.03 98.03 768.00 98.00
C 770.48 97.97 773.15 97.24 775.00 97.00
C 770.77 97.12 763.43 97.62 762.00 98.00 Z"/>
</g>
<g fill="None" fill-opacity="0.0" stroke="#F4FF12" stroke-opacity="0.41" stroke-width="0.3"><path d="
M 711.00 99.00 
C 722.00 99.00 733.00 99.00 744.00 99.00
C 745.67 99.00 747.33 99.00 749.00 99.00
C 737.13 97.85 722.94 97.84 711.00 99.00 Z"/>
</g>
<g fill="None" fill-opacity="0.0" stroke="#D9F108" stroke-opacity="1.00" stroke-width="0.3"><path d="
M 749.00 99.00 
C 747.33 99.00 745.67 99.00 744.00 99.00
C 732.91 100.18 721.96 101.12 711.00 99.00
C 675.47 102.44 638.38 98.12 603.00 100.00 C 567.62 101.88 530.94 97.56 495.00 99.00 C 459.06 100.44 421.96 98.46 386.00 99.00 C 350.04 99.54 312.72 99.00 277.00 99.00 C 241.28 99.00 206.12 99.18 172.00 100.00
C 169.22 100.45 165.55 102.63 162.00 103.00 C 158.45 103.37 154.38 102.99 154.00 103.00
C 152.42 103.61 150.26 104.53 149.00 105.00
C 149.38 105.10 150.84 106.43 151.00 107.00
C 147.25 107.22 144.40 110.00 141.00 111.00
C 139.25 112.19 136.69 113.80 135.00 115.00
C 115.27 129.09 98.05 150.85 92.00 174.00
C 91.17 173.59 90.13 173.03 90.00 172.00
C 89.67 172.90 88.50 173.86 88.00 176.00
C 88.79 175.27 89.94 174.98 91.00 175.00
C 92.56 181.82 87.91 186.55 88.00 193.00
C 87.92 195.26 88.17 198.89 88.00 202.00
C 85.87 241.27 88.99 280.64 88.00 320.00 C 87.01 359.36 88.53 399.66 88.00 439.00 C 87.47 478.34 88.43 518.90 88.00 558.00 C 87.57 597.10 88.61 638.51 88.00 677.00 C 87.39 715.49 89.19 758.91 88.00 796.00 C 86.81 833.09 86.89 867.54 107.92 895.08 C 128.96 922.61 151.63 935.80 183.00 937.00
C 202.18 937.73 222.58 937.21 241.00 938.00
C 249.18 937.56 257.52 937.17 266.00 937.00
C 282.75 936.67 299.81 936.43 316.00 938.00
C 345.08 938.00 374.50 936.42 404.00 937.00 C 433.50 937.58 463.46 936.86 493.00 937.00 C 522.54 937.14 552.49 937.22 582.00 937.00 C 611.51 936.78 641.64 937.72 671.00 937.00 C 700.36 936.28 731.00 938.69 760.00 937.00 C 789.00 935.31 819.70 941.95 847.00 934.00
C 851.78 932.61 857.95 931.30 862.25 928.25 C 866.54 925.19 873.25 925.42 876.00 925.00
C 879.31 923.06 881.13 921.34 884.00 919.00
C 891.14 905.85 903.40 900.34 911.25 885.25 C 919.11 870.17 923.39 854.25 924.33 835.33 C 925.27 816.41 925.01 792.21 925.00 772.00 C 924.99 751.79 925.00 729.68 925.00 709.00 C 925.00 688.32 925.00 666.94 925.00 646.00 C 925.00 625.06 925.00 603.04 925.00 582.00 C 925.00 560.96 924.99 540.06 925.00 519.00 C 925.01 497.94 924.98 477.11 925.00 456.00 C 925.02 434.89 924.96 413.12 925.00 392.00 C 925.04 370.88 924.91 350.10 925.00 329.00 C 925.09 307.90 924.81 287.16 925.00 266.00 C 925.20 244.84 924.58 223.19 925.00 202.00
C 924.12 196.61 922.79 189.89 922.00 184.00
C 921.31 178.82 919.13 174.56 922.00 170.00
C 917.61 167.94 914.23 157.09 912.00 151.00
C 906.34 149.39 901.13 137.21 898.00 133.00
C 892.65 125.81 884.10 119.12 877.00 114.00
C 875.15 112.67 872.84 112.03 871.00 111.00
C 859.22 104.36 848.73 102.35 836.00 99.00
C 813.82 96.52 789.35 100.07 768.00 98.00
C 766.03 98.03 763.96 97.81 762.00 98.00
C 758.34 98.35 753.41 99.00 749.00 99.00
M 739.00 740.00 
C 735.56 739.93 733.26 738.46 731.00 738.00
C 712.79 736.76 695.68 741.25 678.00 740.00 C 660.32 738.75 643.12 739.00 625.00 739.00
C 615.88 739.88 605.05 739.88 596.00 739.00
C 583.33 739.00 570.67 739.00 558.00 739.00
C 514.97 743.16 468.96 740.02 425.00 740.00 C 381.04 739.98 334.05 743.17 291.00 739.00
C 284.33 739.00 277.67 739.00 271.00 739.00
C 267.04 739.38 263.04 740.08 259.00 739.00
C 243.93 734.97 248.67 717.69 254.77 707.77 C 260.87 697.85 267.87 689.23 272.75 678.75 C 277.64 668.28 284.06 657.86 289.75 647.75 C 295.45 637.65 300.72 627.71 306.75 617.75 C 312.79 607.80 317.81 596.85 323.92 586.92 C 330.02 576.99 335.65 567.42 341.25 557.25 C 346.86 547.09 352.59 536.64 358.75 526.75 C 364.92 516.87 369.92 506.78 375.75 496.75 C 381.59 486.72 387.43 476.10 392.97 465.97 C 398.51 455.85 404.16 445.91 409.92 435.92 C 415.68 425.93 421.04 416.17 427.31 406.31 C 433.57 396.44 438.99 385.82 444.30 375.30 C 449.62 364.79 456.58 356.52 461.92 345.92 C 467.25 335.31 472.07 325.27 478.92 314.92 C 485.77 304.57 488.49 296.07 496.25 285.25 C 504.02 274.44 520.65 280.45 524.77 292.23 C 528.89 304.01 534.21 313.05 540.92 323.08 C 547.62 333.11 551.74 343.94 557.92 354.08 C 564.10 364.22 569.16 373.83 574.92 384.08 C 580.68 394.33 585.72 405.20 591.97 415.03 C 598.22 424.85 603.17 435.08 608.92 445.08 C 614.68 455.08 620.45 464.98 625.78 475.22 C 631.10 485.47 637.85 495.52 643.26 505.74 C 648.66 515.97 654.33 525.71 660.25 535.75 C 666.17 545.78 671.77 556.20 677.75 566.25 C 683.73 576.29 688.98 586.04 694.77 596.23 C 700.56 606.42 705.18 617.07 711.92 627.08 C 718.67 637.08 722.42 646.83 728.32 657.68 C 734.23 668.53 741.11 675.66 746.25 687.75 C 751.40 699.83 758.87 703.38 762.99 718.01 C 767.12 732.63 753.45 740.29 739.00 740.00 Z"/>
</g>
<g fill="None" fill-opacity="0.0" stroke="#ECFF12" stroke-opacity="0.88" stroke-width="0.3"><path d="
M 744.00 99.00 
C 733.00 99.00 722.00 99.00 711.00 99.00
C 721.96 101.12 732.91 100.18 744.00 99.00 Z"/>
</g>
<g fill="None" fill-opacity="0.0" stroke="#ECF912" stroke-opacity="0.44" stroke-width="0.3"><path d="
M 154.00 103.00 
C 154.38 102.99 158.45 103.37 162.00 103.00 C 165.55 102.63 169.22 100.45 172.00 100.00
C 170.27 100.04 168.81 99.92 167.08 101.07 C 165.34 102.21 164.03 100.00 164.00 100.00
C 160.15 100.94 157.20 101.77 154.00 103.00 Z"/>
</g>
<g fill="None" fill-opacity="0.0" stroke="#E2EC11" stroke-opacity="0.32" stroke-width="0.3"><path d="
M 138.00 110.00 
C 138.97 110.02 139.80 110.99 141.00 111.00
C 144.40 110.00 147.25 107.22 151.00 107.00
C 150.84 106.43 149.38 105.10 149.00 105.00
C 144.72 106.60 141.78 107.64 138.00 110.00 Z"/>
</g>
<g fill="None" fill-opacity="0.0" stroke="#F2FF13" stroke-opacity="0.57" stroke-width="0.3"><path d="
M 871.00 111.00 
C 872.84 112.03 875.15 112.67 877.00 114.00
C 877.00 114.00 876.92 111.07 876.00 110.00
C 876.00 110.00 875.46 110.13 875.00 110.00
C 873.02 109.42 870.50 110.94 871.00 111.00 Z"/>
</g>
<g fill="None" fill-opacity="0.0" stroke="#ECF911" stroke-opacity="0.50" stroke-width="0.3"><path d="
M 136.00 111.00 
C 136.20 110.65 134.66 115.48 135.00 115.00
C 136.69 113.80 139.25 112.19 141.00 111.00
C 139.80 110.99 138.97 110.02 138.00 110.00
C 136.68 109.97 136.80 110.49 136.00 111.00 Z"/>
</g>
<g fill="None" fill-opacity="0.0" stroke="#E7F615" stroke-opacity="0.33" stroke-width="0.3"><path d="
M 877.00 114.00 
C 884.10 119.12 892.65 125.81 898.00 133.00
C 901.83 136.41 905.47 139.44 909.00 143.00
C 900.70 131.02 889.99 115.95 876.00 110.00
C 876.92 111.07 877.00 114.00 877.00 114.00 Z"/>
</g>
<g fill="None" fill-opacity="0.0" stroke="#EAF612" stroke-opacity="0.37" stroke-width="0.3"><path d="
M 90.00 172.00 
C 90.13 173.03 91.17 173.59 92.00 174.00
C 98.05 150.85 115.27 129.09 135.00 115.00
C 134.66 115.48 136.20 110.65 136.00 111.00
C 124.91 118.11 117.34 126.71 107.77 136.77 C 98.20 146.83 94.72 159.09 90.00 172.00 Z"/>
</g>
<g fill="None" fill-opacity="0.0" stroke="#EBFB12" stroke-opacity="0.50" stroke-width="0.3"><path d="
M 912.00 151.00 
C 912.16 151.05 912.96 150.36 914.00 151.00
C 912.16 147.97 911.15 145.17 909.00 143.00
C 905.47 139.44 901.83 136.41 898.00 133.00
C 901.13 137.21 906.34 149.39 912.00 151.00 Z"/>
</g>
<g fill="None" fill-opacity="0.0" stroke="#E6F212" stroke-opacity="0.34" stroke-width="0.3"><path d="
M 912.00 151.00 
C 914.23 157.09 917.61 167.94 922.00 170.00
C 919.13 174.56 921.31 178.82 922.00 184.00
C 922.64 185.72 927.12 186.57 924.00 190.00
C 925.06 188.88 925.84 189.52 927.00 190.00
C 926.50 175.37 920.90 162.37 914.00 151.00
C 912.96 150.36 912.16 151.05 912.00 151.00 Z"/>
</g>
<g fill="None" fill-opacity="0.0" stroke="#EAF811" stroke-opacity="0.38" stroke-width="0.3"><path d="
M 88.00 176.00 
C 86.72 181.49 86.23 185.97 86.00 192.00
C 86.16 193.07 87.90 195.26 87.00 197.00
C 88.60 196.47 87.72 194.25 88.00 193.00
C 87.91 186.55 92.56 181.82 91.00 175.00
C 89.94 174.98 88.79 175.27 88.00 176.00 Z"/>
</g>
<g fill="None" fill-opacity="0.0" stroke="#EBF910" stroke-opacity="0.66" stroke-width="0.3"><path d="
M 925.00 202.00 
C 925.08 197.99 925.91 196.14 927.00 193.00
C 926.80 192.10 927.03 190.93 927.00 190.00
C 925.84 189.52 925.06 188.88 924.00 190.00
C 927.12 186.57 922.64 185.72 922.00 184.00
C 922.79 189.89 924.12 196.61 925.00 202.00 Z"/>
</g>
<g fill="None" fill-opacity="0.0" stroke="#D4DD0E" stroke-opacity="0.22" stroke-width="0.3"><path d="
M 84.00 216.00 
C 84.55 221.67 84.54 228.40 84.00 234.00
C 84.00 237.75 82.88 244.14 85.00 247.00
C 84.21 239.70 87.26 231.61 86.00 224.00 C 84.74 216.39 86.59 208.56 88.00 202.00
C 88.17 198.89 87.92 195.26 88.00 193.00
C 87.72 194.25 88.60 196.47 87.00 197.00
C 87.90 195.26 86.16 193.07 86.00 192.00
C 85.69 200.20 84.00 207.54 84.00 216.00 Z"/>
</g>
<g fill="None" fill-opacity="0.0" stroke="#F2FD11" stroke-opacity="0.33" stroke-width="0.3"><path d="
M 925.00 202.00 
C 924.58 223.19 925.20 244.84 925.00 266.00 C 924.81 287.16 925.09 307.90 925.00 329.00 C 924.91 350.10 925.04 370.88 925.00 392.00 C 924.96 413.12 925.02 434.89 925.00 456.00 C 924.98 477.11 925.01 497.94 925.00 519.00 C 924.99 540.06 925.00 560.96 925.00 582.00 C 925.00 603.04 925.00 625.06 925.00 646.00 C 925.00 666.94 925.00 688.32 925.00 709.00 C 925.00 729.68 924.99 751.79 925.00 772.00 C 925.01 792.21 925.27 816.41 924.33 835.33 C 923.39 854.25 919.11 870.17 911.25 885.25 C 903.40 900.34 891.14 905.85 884.00 919.00
C 901.39 904.86 913.68 893.75 921.74 870.74 C 929.81 847.74 927.93 817.85 928.00 791.00 C 928.07 764.15 928.00 733.78 928.00 706.00 C 928.00 678.22 928.06 648.21 928.00 620.00 C 927.94 591.79 928.17 562.34 928.00 534.00 C 927.83 505.66 928.40 477.36 928.00 449.00 C 927.60 420.64 928.88 391.28 928.00 363.00 C 927.12 334.72 929.95 304.94 928.00 277.00 C 926.05 249.06 932.84 219.60 927.00 193.00
C 925.91 196.14 925.08 197.99 925.00 202.00 Z"/>
</g>
<g fill="None" fill-opacity="0.0" stroke="#EFFC13" stroke-opacity="0.46" stroke-width="0.3"><path d="
M 85.00 247.00 
C 85.00 247.00 85.00 247.50 85.00 248.00
C 85.00 255.00 85.00 262.00 85.00 269.00
C 85.00 272.67 85.00 276.33 85.00 280.00
C 85.00 281.00 85.00 282.00 85.00 283.00
C 85.00 287.00 85.00 291.00 85.00 295.00
C 85.00 302.00 85.00 309.00 85.00 316.00
C 85.00 316.00 85.00 316.50 85.00 317.00
C 85.00 321.65 85.18 326.35 85.00 331.00
C 84.76 337.41 84.00 343.40 84.00 350.00
C 84.42 354.39 85.00 359.93 85.00 365.00
C 85.00 365.00 85.00 365.50 85.00 366.00
C 85.00 380.00 85.00 394.00 85.00 408.00
C 85.00 408.50 85.00 409.50 85.00 410.00
C 85.00 423.67 85.00 437.33 85.00 451.00
C 85.00 452.67 85.00 454.33 85.00 456.00
C 85.00 461.42 85.94 468.44 84.00 473.00
C 84.00 473.50 84.00 474.50 84.00 475.00
C 85.55 478.64 85.00 483.66 85.00 488.00
C 85.00 488.50 85.00 489.50 85.00 490.00
C 85.00 505.00 85.00 520.00 85.00 535.00
C 85.00 536.00 85.00 537.00 85.00 538.00
C 85.00 545.67 85.00 553.33 85.00 561.00
C 85.00 562.00 85.00 563.00 85.00 564.00
C 85.00 575.64 86.36 589.25 84.00 600.00
C 84.00 601.00 84.00 602.00 84.00 603.00
C 85.52 609.91 85.00 618.38 85.00 626.00
C 85.00 626.00 85.00 626.50 85.00 627.00
C 85.00 636.00 85.00 645.00 85.00 654.00
C 85.00 659.67 85.00 665.33 85.00 671.00
C 85.00 675.00 85.00 679.00 85.00 683.00
C 85.00 683.50 85.00 684.50 85.00 685.00
C 85.00 687.66 85.07 690.34 85.00 693.00
C 86.74 711.01 84.95 731.38 86.00 750.00 C 87.05 768.62 87.13 786.52 84.00 804.00
C 84.00 833.71 84.26 869.32 102.08 890.92 C 119.90 912.52 131.89 934.40 162.00 936.00
C 164.28 936.12 165.41 936.84 168.00 938.00
C 173.51 939.22 178.05 939.68 184.00 940.00
C 184.55 939.86 186.52 938.08 187.00 938.00
C 185.59 937.78 183.90 937.18 183.00 937.00
C 151.63 935.80 128.96 922.61 107.92 895.08 C 86.89 867.54 86.81 833.09 88.00 796.00 C 89.19 758.91 87.39 715.49 88.00 677.00 C 88.61 638.51 87.57 597.10 88.00 558.00 C 88.43 518.90 87.47 478.34 88.00 439.00 C 88.53 399.66 87.01 359.36 88.00 320.00 C 88.99 280.64 85.87 241.27 88.00 202.00
C 86.59 208.56 84.74 216.39 86.00 224.00 C 87.26 231.61 84.21 239.70 85.00 247.00 Z"/>
</g>
<g fill="None" fill-opacity="0.0" stroke="#91BF00" stroke-opacity="0.03" stroke-width="0.3"><path d="
M 84.00 234.00 
C 84.54 228.40 84.55 221.67 84.00 216.00
C 84.00 222.00 84.00 228.00 84.00 234.00 Z"/>
</g>
<g fill="None" fill-opacity="0.0" stroke="#656600" stroke-opacity="0.02" stroke-width="0.3"><path d="
M 84.00 269.00 
C 84.00 268.96 85.00 269.00 85.00 269.00
C 85.00 262.00 85.00 255.00 85.00 248.00
C 82.01 252.04 84.00 263.64 84.00 269.00 Z"/>
</g>
<g fill="None" fill-opacity="0.0" stroke="#006600" stroke-opacity="0.02" stroke-width="0.3"><path d="
M 85.00 280.00 
C 85.00 276.33 85.00 272.67 85.00 269.00
C 85.00 269.00 84.00 268.96 84.00 269.00
C 84.00 272.90 84.28 276.73 85.00 280.00 Z"/>
</g>
<g fill="None" fill-opacity="0.0" stroke="#000000" stroke-opacity="1.00" stroke-width="0.3"><path d="
M 259.00 739.00 
C 262.83 739.53 267.13 739.00 271.00 739.00
C 277.67 739.00 284.33 739.00 291.00 739.00
C 380.00 739.00 469.00 739.00 558.00 739.00
C 570.67 739.00 583.33 739.00 596.00 739.00
C 605.67 739.00 615.33 739.00 625.00 739.00
C 643.12 739.00 660.32 738.75 678.00 740.00 C 695.68 741.25 712.79 736.76 731.00 738.00
C 733.92 738.20 736.67 739.62 739.00 740.00
C 753.45 740.29 767.12 732.63 762.99 718.01 C 758.87 703.38 751.40 699.83 746.25 687.75 C 741.11 675.66 734.23 668.53 728.32 657.68 C 722.42 646.83 718.67 637.08 711.92 627.08 C 705.18 617.07 700.56 606.42 694.77 596.23 C 688.98 586.04 683.73 576.29 677.75 566.25 C 671.77 556.20 666.17 545.78 660.25 535.75 C 654.33 525.71 648.66 515.97 643.26 505.74 C 637.85 495.52 631.10 485.47 625.78 475.22 C 620.45 464.98 614.68 455.08 608.92 445.08 C 603.17 435.08 598.22 424.85 591.97 415.03 C 585.72 405.20 580.68 394.33 574.92 384.08 C 569.16 373.83 564.10 364.22 557.92 354.08 C 551.74 343.94 547.62 333.11 540.92 323.08 C 534.21 313.05 528.89 304.01 524.77 292.23 C 520.65 280.45 504.02 274.44 496.25 285.25 C 488.49 296.07 485.77 304.57 478.92 314.92 C 472.07 325.27 467.25 335.31 461.92 345.92 C 456.58 356.52 449.62 364.79 444.30 375.30 C 438.99 385.82 433.57 396.44 427.31 406.31 C 421.04 416.17 415.68 425.93 409.92 435.92 C 404.16 445.91 398.51 455.85 392.97 465.97 C 387.43 476.10 381.59 486.72 375.75 496.75 C 369.92 506.78 364.92 516.87 358.75 526.75 C 352.59 536.64 346.86 547.09 341.25 557.25 C 335.65 567.42 330.02 576.99 323.92 586.92 C 317.81 596.85 312.79 607.80 306.75 617.75 C 300.72 627.71 295.45 637.65 289.75 647.75 C 284.06 657.86 277.64 668.28 272.75 678.75 C 267.87 689.23 260.87 697.85 254.77 707.77 C 248.67 717.69 243.93 734.97 259.00 739.00
M 664.00 711.00 
C 641.00 711.00 618.00 711.00 595.00 711.00
C 525.33 711.00 455.67 711.00 386.00 711.00
C 377.00 711.00 368.00 711.00 359.00 711.00
C 350.33 711.00 340.91 710.77 333.00 710.00
C 329.07 710.35 324.95 710.00 321.00 710.00
C 316.26 710.00 310.99 709.39 307.00 709.00
C 300.67 709.00 294.33 709.00 288.00 709.00
C 291.94 690.93 306.44 676.92 313.97 659.97 C 321.50 643.03 334.06 628.71 342.26 612.26 C 350.45 595.80 360.33 580.32 369.32 564.32 C 378.31 548.33 388.82 532.83 397.31 516.31 C 405.79 499.78 415.70 484.90 424.77 468.77 C 433.84 452.64 442.39 435.85 452.26 420.26 C 462.12 404.66 469.87 388.00 479.30 372.30 C 488.73 356.61 496.76 338.76 509.00 326.00
C 579.72 454.80 654.37 582.20 727.00 710.00
C 706.50 712.32 684.92 710.34 664.00 711.00 Z"/>
</g>
<g fill="None" fill-opacity="0.0" stroke="#006600" stroke-opacity="0.02" stroke-width="0.3"><path d="
M 84.00 295.00 
C 84.00 294.96 85.00 295.00 85.00 295.00
C 85.00 291.00 85.00 287.00 85.00 283.00
C 84.23 286.53 84.00 290.78 84.00 295.00 Z"/>
</g>
<g fill="None" fill-opacity="0.0" stroke="#656600" stroke-opacity="0.02" stroke-width="0.3"><path d="
M 85.00 316.00 
C 85.00 309.00 85.00 302.00 85.00 295.00
C 85.00 295.00 84.00 294.96 84.00 295.00
C 84.00 300.33 81.99 311.93 85.00 316.00 Z"/>
</g>
<g fill="None" fill-opacity="0.0" stroke="#656600" stroke-opacity="0.02" stroke-width="0.3"><path d="
M 85.00 331.00 
C 85.18 326.35 85.00 321.65 85.00 317.00
C 82.30 320.65 84.78 327.28 85.00 331.00 Z"/>
</g>
<g fill="None" fill-opacity="0.0" stroke="#DAF212" stroke-opacity="1.00" stroke-width="0.3"><path d="
M 307.00 709.00 
C 311.67 709.00 316.33 709.00 321.00 709.00
C 325.00 709.00 329.00 709.00 333.00 709.00
C 341.68 709.00 351.09 709.23 359.00 710.00
C 367.85 709.20 377.94 710.22 386.00 711.00
C 455.67 711.00 525.33 711.00 595.00 711.00
C 616.64 708.91 642.43 708.91 664.00 711.00
C 684.92 710.34 706.50 712.32 727.00 710.00
C 654.37 582.20 579.72 454.80 509.00 326.00
C 496.76 338.76 488.73 356.61 479.30 372.30 C 469.87 388.00 462.12 404.66 452.26 420.26 C 442.39 435.85 433.84 452.64 424.77 468.77 C 415.70 484.90 405.79 499.78 397.31 516.31 C 388.82 532.83 378.31 548.33 369.32 564.32 C 360.33 580.32 350.45 595.80 342.26 612.26 C 334.06 628.71 321.50 643.03 313.97 659.97 C 306.44 676.92 291.94 690.93 288.00 709.00
C 294.33 709.00 300.67 709.00 307.00 709.00 Z"/>
</g>
<g fill="None" fill-opacity="0.0" stroke="#297F00" stroke-opacity="0.02" stroke-width="0.3"><path d="
M 85.00 365.00 
C 85.00 359.93 84.42 354.39 84.00 350.00
C 84.00 354.15 82.66 361.83 85.00 365.00 Z"/>
</g>
<g fill="None" fill-opacity="0.0" stroke="#5E6600" stroke-opacity="0.02" stroke-width="0.3"><path d="
M 85.00 408.00 
C 85.00 394.00 85.00 380.00 85.00 366.00
C 81.71 370.45 84.42 381.13 84.00 387.00 C 83.58 392.87 82.84 402.92 85.00 408.00 Z"/>
</g>
<g fill="None" fill-opacity="0.0" stroke="#626600" stroke-opacity="0.02" stroke-width="0.3"><path d="
M 85.00 451.00 
C 85.00 437.33 85.00 423.67 85.00 410.00
C 80.71 420.10 83.87 440.37 85.00 451.00 Z"/>
</g>
<g fill="None" fill-opacity="0.0" stroke="#4F7F00" stroke-opacity="0.02" stroke-width="0.3"><path d="
M 84.00 473.00 
C 85.94 468.44 85.00 461.42 85.00 456.00
C 84.47 460.99 84.00 467.27 84.00 473.00 Z"/>
</g>
<g fill="None" fill-opacity="0.0" stroke="#597F00" stroke-opacity="0.02" stroke-width="0.3"><path d="
M 85.00 488.00 
C 85.00 483.66 85.55 478.64 84.00 475.00
C 84.00 479.34 83.45 484.36 85.00 488.00 Z"/>
</g>
<g fill="None" fill-opacity="0.0" stroke="#576600" stroke-opacity="0.02" stroke-width="0.3"><path d="
M 85.00 535.00 
C 85.00 520.00 85.00 505.00 85.00 490.00
C 82.35 496.24 84.49 505.82 84.00 513.00 C 83.51 520.18 83.59 528.57 85.00 535.00 Z"/>
</g>
<g fill="None" fill-opacity="0.0" stroke="#5B6600" stroke-opacity="0.02" stroke-width="0.3"><path d="
M 85.00 561.00 
C 85.00 553.33 85.00 545.67 85.00 538.00
C 83.51 544.78 83.50 554.15 85.00 561.00 Z"/>
</g>
<g fill="None" fill-opacity="0.0" stroke="#778A00" stroke-opacity="0.02" stroke-width="0.3"><path d="
M 84.00 600.00 
C 86.36 589.25 85.00 575.64 85.00 564.00
C 82.64 574.75 84.00 588.36 84.00 600.00 Z"/>
</g>
<g fill="None" fill-opacity="0.0" stroke="#6D9000" stroke-opacity="0.02" stroke-width="0.3"><path d="
M 85.00 626.00 
C 85.00 618.38 85.52 609.91 84.00 603.00
C 84.00 608.72 81.77 621.63 85.00 626.00 Z"/>
</g>
<g fill="None" fill-opacity="0.0" stroke="#506600" stroke-opacity="0.02" stroke-width="0.3"><path d="
M 85.00 654.00 
C 85.00 645.00 85.00 636.00 85.00 627.00
C 81.07 632.31 84.42 648.03 85.00 654.00 Z"/>
</g>
<g fill="None" fill-opacity="0.0" stroke="#4A6600" stroke-opacity="0.02" stroke-width="0.3"><path d="
M 85.00 683.00 
C 85.00 679.00 85.00 675.00 85.00 671.00
C 84.64 674.76 83.31 679.03 85.00 683.00 Z"/>
</g>
<g fill="None" fill-opacity="0.0" stroke="#699100" stroke-opacity="0.02" stroke-width="0.3"><path d="
M 84.00 699.00 
C 84.17 697.53 84.94 695.10 85.00 693.00
C 85.07 690.34 85.00 687.66 85.00 685.00
C 83.36 688.85 84.00 694.37 84.00 699.00 Z"/>
</g>
<g fill="None" fill-opacity="0.0" stroke="#D8DF0C" stroke-opacity="0.16" stroke-width="0.3"><path d="
M 84.00 699.00 
C 84.00 720.23 83.05 742.19 85.00 763.00
C 85.71 770.54 85.71 779.46 85.00 787.00
C 84.49 792.44 84.00 798.19 84.00 804.00
C 87.13 786.52 87.05 768.62 86.00 750.00 C 84.95 731.38 86.74 711.01 85.00 693.00
C 84.94 695.10 84.17 697.53 84.00 699.00 Z"/>
</g>
<g fill="None" fill-opacity="0.0" stroke="#555E06" stroke-opacity="1.00" stroke-width="0.3"><path d="
M 321.00 710.00 
C 320.96 710.00 321.00 709.00 321.00 709.00
C 316.33 709.00 311.67 709.00 307.00 709.00
C 310.99 709.39 316.26 710.00 321.00 710.00 Z"/>
</g>
<g fill="None" fill-opacity="0.0" stroke="#737F08" stroke-opacity="1.00" stroke-width="0.3"><path d="
M 321.00 710.00 
C 324.95 710.00 329.07 710.35 333.00 710.00
C 332.96 710.00 333.00 709.00 333.00 709.00
C 329.00 709.00 325.00 709.00 321.00 709.00
C 321.00 709.00 320.96 710.00 321.00 710.00 Z"/>
</g>
<g fill="None" fill-opacity="0.0" stroke="#97A70B" stroke-opacity="1.00" stroke-width="0.3"><path d="
M 333.00 710.00 
C 341.60 710.78 350.40 709.22 359.00 710.00
C 351.09 709.23 341.68 709.00 333.00 709.00
C 333.00 709.00 332.96 710.00 333.00 710.00 Z"/>
</g>
<g fill="None" fill-opacity="0.0" stroke="#525B04" stroke-opacity="1.00" stroke-width="0.3"><path d="
M 359.00 711.00 
C 358.96 711.00 359.00 710.00 359.00 710.00
C 350.40 709.22 341.60 710.78 333.00 710.00
C 340.91 710.77 350.33 711.00 359.00 711.00 Z"/>
</g>
<g fill="None" fill-opacity="0.0" stroke="#768208" stroke-opacity="1.00" stroke-width="0.3"><path d="
M 359.00 711.00 
C 368.00 711.00 377.00 711.00 386.00 711.00
C 377.94 710.22 367.85 709.20 359.00 710.00
C 359.00 710.00 358.96 711.00 359.00 711.00 Z"/>
</g>
<g fill="None" fill-opacity="0.0" stroke="#808F09" stroke-opacity="1.00" stroke-width="0.3"><path d="
M 595.00 711.00 
C 618.00 711.00 641.00 711.00 664.00 711.00
C 642.43 708.91 616.64 708.91 595.00 711.00 Z"/>
</g>
<g fill="None" fill-opacity="0.0" stroke="#77870A" stroke-opacity="1.00" stroke-width="0.3"><path d="
M 739.00 740.00 
C 736.67 739.62 733.92 738.20 731.00 738.00
C 733.26 738.46 735.56 739.93 739.00 740.00 Z"/>
</g>
<g fill="None" fill-opacity="0.0" stroke="#647208" stroke-opacity="1.00" stroke-width="0.3"><path d="
M 271.00 739.00 
C 267.13 739.00 262.83 739.53 259.00 739.00
C 263.04 740.08 267.04 739.38 271.00 739.00 Z"/>
</g>
<g fill="None" fill-opacity="0.0" stroke="#576407" stroke-opacity="1.00" stroke-width="0.3"><path d="
M 558.00 739.00 
C 469.00 739.00 380.00 739.00 291.00 739.00
C 334.05 743.17 381.04 739.98 425.00 740.00 C 468.96 740.02 514.97 743.16 558.00 739.00 Z"/>
</g>
<g fill="None" fill-opacity="0.0" stroke="#596507" stroke-opacity="1.00" stroke-width="0.3"><path d="
M 625.00 739.00 
C 615.33 739.00 605.67 739.00 596.00 739.00
C 605.05 739.88 615.88 739.88 625.00 739.00 Z"/>
</g>
<g fill="None" fill-opacity="0.0" stroke="#4A6600" stroke-opacity="0.02" stroke-width="0.3"><path d="
M 85.00 787.00 
C 85.71 779.46 85.71 770.54 85.00 763.00
C 84.98 769.89 84.98 780.04 85.00 787.00 Z"/>
</g>
<g fill="None" fill-opacity="0.0" stroke="#EEF915" stroke-opacity="0.41" stroke-width="0.3"><path d="
M 847.00 934.00 
C 848.09 934.28 848.38 935.73 849.00 936.00
C 859.52 933.27 866.71 930.46 876.00 925.00
C 873.25 925.42 866.54 925.19 862.25 928.25 C 857.95 931.30 851.78 932.61 847.00 934.00 Z"/>
</g>
<g fill="None" fill-opacity="0.0" stroke="#EEFB16" stroke-opacity="0.28" stroke-width="0.3"><path d="
M 316.00 938.00 
C 299.45 938.00 281.75 938.52 266.00 937.00
C 257.52 937.17 249.18 937.56 241.00 938.00
C 223.56 938.95 204.34 940.67 187.00 938.00
C 186.52 938.08 184.55 939.86 184.00 940.00
C 186.53 940.14 188.68 940.80 191.00 941.00
C 204.48 940.88 219.77 939.79 234.00 940.00
C 274.26 940.59 315.96 939.86 357.00 940.00 C 398.04 940.14 439.95 940.22 481.00 940.00 C 522.05 939.78 564.12 940.73 605.00 940.00 C 645.88 939.27 688.60 941.73 729.00 940.00 C 769.40 938.27 811.84 945.63 849.00 936.00
C 848.38 935.73 848.09 934.28 847.00 934.00
C 819.70 941.95 789.00 935.31 760.00 937.00 C 731.00 938.69 700.36 936.28 671.00 937.00 C 641.64 937.72 611.51 936.78 582.00 937.00 C 552.49 937.22 522.54 937.14 493.00 937.00 C 463.46 936.86 433.50 937.58 404.00 937.00 C 374.50 936.42 345.08 938.00 316.00 938.00 Z"/>
</g>
<g fill="None" fill-opacity="0.0" stroke="#EFF718" stroke-opacity="0.15" stroke-width="0.3"><path d="
M 162.00 936.00 
C 163.31 936.31 165.95 937.55 168.00 938.00
C 165.41 936.84 164.28 936.12 162.00 936.00 Z"/>
</g>
<g fill="None" fill-opacity="0.0" stroke="#EFFF10" stroke-opacity="0.61" stroke-width="0.3"><path d="
M 266.00 937.00 
C 281.75 938.52 299.45 938.00 316.00 938.00
C 299.81 936.43 282.75 936.67 266.00 937.00 Z"/>
</g>
<g fill="None" fill-opacity="0.0" stroke="#ECFF11" stroke-opacity="0.80" stroke-width="0.3"><path d="
M 187.00 938.00 
C 204.34 940.67 223.56 938.95 241.00 938.00
C 222.58 937.21 202.18 937.73 183.00 937.00
C 183.90 937.18 185.59 937.78 187.00 938.00 Z"/>
</g>
<g fill="None" fill-opacity="0.0" stroke="#DAF117" stroke-opacity="0.07" stroke-width="0.3"><path d="
M 191.00 941.00 
C 193.62 941.23 196.37 941.00 199.00 941.00
C 203.67 941.00 208.33 941.00 213.00 941.00
C 214.33 941.00 215.67 941.00 217.00 941.00
C 220.99 941.00 225.02 941.16 229.00 941.00
C 230.82 940.93 232.78 940.18 234.00 940.00
C 219.77 939.79 204.48 940.88 191.00 941.00 Z"/>
</g>
<g fill="None" fill-opacity="0.0" stroke="#6F7F00" stroke-opacity="0.02" stroke-width="0.3"><path d="
M 213.00 941.00 
C 208.33 941.00 203.67 941.00 199.00 941.00
C 203.40 941.43 208.49 941.62 213.00 941.00 Z"/>
</g>
<g fill="None" fill-opacity="0.0" stroke="#6B6800" stroke-opacity="0.02" stroke-width="0.3"><path d="
M 229.00 941.00 
C 225.02 941.16 220.99 941.00 217.00 941.00
C 220.90 941.53 225.03 941.58 229.00 941.00 Z"/>
</g>
<g fill="#000000" fill-opacity="0.00" stroke="None">
<path d="
M 0.00 1080.00 
L 1080.00 1080.00
L 1080.00 0.00
L 0.00 0.00
L 0.00 1080.00
M 679.00 95.00 
C 694.03 95.82 709.61 96.00 725.00 96.00
C 728.67 96.00 732.33 96.00 736.00 96.00
C 747.09 96.00 758.27 95.85 769.00 95.00
C 772.69 94.71 777.34 94.47 781.00 95.00
C 788.69 94.26 798.72 94.01 807.00 94.00 C 815.28 93.99 825.98 94.15 833.22 95.78 C 840.46 97.41 851.13 97.24 856.67 100.33 C 862.21 103.42 873.70 104.38 875.00 110.00
C 875.46 110.13 876.00 110.00 876.00 110.00
C 889.99 115.95 900.70 131.02 909.00 143.00
C 911.15 145.17 912.16 147.97 914.00 151.00
C 920.90 162.37 926.50 175.37 927.00 190.00
C 927.03 190.93 926.80 192.10 927.00 193.00
C 932.84 219.60 926.05 249.06 928.00 277.00 C 929.95 304.94 927.12 334.72 928.00 363.00 C 928.88 391.28 927.60 420.64 928.00 449.00 C 928.40 477.36 927.83 505.66 928.00 534.00 C 928.17 562.34 927.94 591.79 928.00 620.00 C 928.06 648.21 928.00 678.22 928.00 706.00 C 928.00 733.78 928.07 764.15 928.00 791.00 C 927.93 817.85 929.81 847.74 921.74 870.74 C 913.68 893.75 901.39 904.86 884.00 919.00
C 881.13 921.34 879.31 923.06 876.00 925.00
C 866.71 930.46 859.52 933.27 849.00 936.00
C 811.84 945.63 769.40 938.27 729.00 940.00 C 688.60 941.73 645.88 939.27 605.00 940.00 C 564.12 940.73 522.05 939.78 481.00 940.00 C 439.95 940.22 398.04 940.14 357.00 940.00 C 315.96 939.86 274.26 940.59 234.00 940.00
C 232.78 940.18 230.82 940.93 229.00 941.00
C 225.03 941.58 220.90 941.53 217.00 941.00
C 215.67 941.00 214.33 941.00 213.00 941.00
C 208.49 941.62 203.40 941.43 199.00 941.00
C 196.37 941.00 193.62 941.23 191.00 941.00
C 188.68 940.80 186.53 940.14 184.00 940.00
C 178.05 939.68 173.51 939.22 168.00 938.00
C 165.95 937.55 163.31 936.31 162.00 936.00
C 131.89 934.40 119.90 912.52 102.08 890.92 C 84.26 869.32 84.00 833.71 84.00 804.00
C 84.00 798.19 84.49 792.44 85.00 787.00
C 84.98 780.04 84.98 769.89 85.00 763.00
C 83.05 742.19 84.00 720.23 84.00 699.00
C 84.00 694.37 83.36 688.85 85.00 685.00
C 85.00 684.50 85.00 683.50 85.00 683.00
C 83.31 679.03 84.64 674.76 85.00 671.00
C 85.00 665.33 85.00 659.67 85.00 654.00
C 84.42 648.03 81.07 632.31 85.00 627.00
C 85.00 626.50 85.00 626.00 85.00 626.00
C 81.77 621.63 84.00 608.72 84.00 603.00
C 84.00 602.00 84.00 601.00 84.00 600.00
C 84.00 588.36 82.64 574.75 85.00 564.00
C 85.00 563.00 85.00 562.00 85.00 561.00
C 83.50 554.15 83.51 544.78 85.00 538.00
C 85.00 537.00 85.00 536.00 85.00 535.00
C 83.59 528.57 83.51 520.18 84.00 513.00 C 84.49 505.82 82.35 496.24 85.00 490.00
C 85.00 489.50 85.00 488.50 85.00 488.00
C 83.45 484.36 84.00 479.34 84.00 475.00
C 84.00 474.50 84.00 473.50 84.00 473.00
C 84.00 467.27 84.47 460.99 85.00 456.00
C 85.00 454.33 85.00 452.67 85.00 451.00
C 83.87 440.37 80.71 420.10 85.00 410.00
C 85.00 409.50 85.00 408.50 85.00 408.00
C 82.84 402.92 83.58 392.87 84.00 387.00 C 84.42 381.13 81.71 370.45 85.00 366.00
C 85.00 365.50 85.00 365.00 85.00 365.00
C 82.66 361.83 84.00 354.15 84.00 350.00
C 84.00 343.40 84.76 337.41 85.00 331.00
C 84.78 327.28 82.30 320.65 85.00 317.00
C 85.00 316.50 85.00 316.00 85.00 316.00
C 81.99 311.93 84.00 300.33 84.00 295.00
C 84.00 290.78 84.23 286.53 85.00 283.00
C 85.00 282.00 85.00 281.00 85.00 280.00
C 84.28 276.73 84.00 272.90 84.00 269.00
C 84.00 263.64 82.01 252.04 85.00 248.00
C 85.00 247.50 85.00 247.00 85.00 247.00
C 82.88 244.14 84.00 237.75 84.00 234.00
C 84.00 228.00 84.00 222.00 84.00 216.00
C 84.00 207.54 85.69 200.20 86.00 192.00
C 86.23 185.97 86.72 181.49 88.00 176.00
C 88.50 173.86 89.67 172.90 90.00 172.00
C 94.72 159.09 98.20 146.83 107.77 136.77 C 117.34 126.71 124.91 118.11 136.00 111.00
C 136.80 110.49 136.68 109.97 138.00 110.00
C 141.78 107.64 144.72 106.60 149.00 105.00
C 150.26 104.53 152.42 103.61 154.00 103.00
C 157.20 101.77 160.15 100.94 164.00 100.00
C 202.24 90.67 243.31 97.60 284.00 96.00 C 324.69 94.40 367.84 96.72 409.00 96.00 C 450.16 95.28 492.71 96.31 534.00 96.00 C 575.29 95.69 617.11 96.56 658.00 95.00
C 664.61 94.06 672.45 93.94 679.00 95.00 Z"/>
</g>
<g fill="#3F0000" fill-opacity="0.02" stroke="None">
<path d="
M 658.00 95.00 
C 664.90 94.74 672.11 94.63 679.00 95.00
C 672.45 93.94 664.61 94.06 658.00 95.00 Z"/>
</g>
<g fill="#EAF615" fill-opacity="0.29" stroke="None">
<path d="
M 781.00 95.00 
C 781.35 95.05 781.77 95.95 782.00 96.00
C 800.09 96.00 819.39 94.63 836.00 99.00
C 848.73 102.35 859.22 104.36 871.00 111.00
C 870.50 110.94 873.02 109.42 875.00 110.00
C 873.70 104.38 862.21 103.42 856.67 100.33 C 851.13 97.24 840.46 97.41 833.22 95.78 C 825.98 94.15 815.28 93.99 807.00 94.00 C 798.72 94.01 788.69 94.26 781.00 95.00 Z"/>
</g>
<g fill="#EBF815" fill-opacity="0.29" stroke="None">
<path d="
M 164.00 100.00 
C 164.03 100.00 165.34 102.21 167.08 101.07 C 168.81 99.92 170.27 100.04 172.00 100.00
C 206.12 99.18 241.28 99.00 277.00 99.00 C 312.72 99.00 350.04 99.54 386.00 99.00 C 421.96 98.46 459.06 100.44 495.00 99.00 C 530.94 97.56 567.62 101.88 603.00 100.00 C 638.38 98.12 675.47 102.44 711.00 99.00
C 722.94 97.84 737.13 97.85 749.00 99.00
C 753.41 99.00 758.34 98.35 762.00 98.00
C 763.43 97.62 770.77 97.12 775.00 97.00
C 777.35 96.93 779.31 97.44 781.00 96.00
C 777.11 96.00 772.08 95.05 769.00 95.00
C 758.27 95.85 747.09 96.00 736.00 96.00
C 732.54 96.33 728.39 96.33 725.00 96.00
C 709.61 96.00 694.03 95.82 679.00 95.00
C 672.11 94.63 664.90 94.74 658.00 95.00
C 617.11 96.56 575.29 95.69 534.00 96.00 C 492.71 96.31 450.16 95.28 409.00 96.00 C 367.84 96.72 324.69 94.40 284.00 96.00 C 243.31 97.60 202.24 90.67 164.00 100.00
M 658.00 97.00 
C 652.58 99.28 645.18 97.37 639.00 98.00
C 644.42 95.72 651.83 97.63 658.00 97.00 Z"/>
</g>
<g fill="#ECFA18" fill-opacity="0.08" stroke="None">
<path d="
M 781.00 96.00 
C 781.50 96.00 782.00 96.00 782.00 96.00
C 781.77 95.95 781.35 95.05 781.00 95.00
C 777.34 94.47 772.69 94.71 769.00 95.00
C 772.08 95.05 777.11 96.00 781.00 96.00 Z"/>
</g>
<g fill="#937800" fill-opacity="0.02" stroke="None">
<path d="
M 736.00 96.00 
C 732.33 96.00 728.67 96.00 725.00 96.00
C 728.39 96.33 732.54 96.33 736.00 96.00 Z"/>
</g>
<g fill="#ECFF11" fill-opacity="0.79" stroke="None">
<path d="
M 775.00 97.00 
C 773.15 97.24 770.48 97.97 768.00 98.00
C 789.35 100.07 813.82 96.52 836.00 99.00
C 819.39 94.63 800.09 96.00 782.00 96.00
C 782.00 96.00 781.50 96.00 781.00 96.00
C 779.31 97.44 777.35 96.93 775.00 97.00 Z"/>
</g>
<g fill="#FAFF13" fill-opacity="0.47" stroke="None">
<path d="
M 658.00 97.00 
C 651.83 97.63 644.42 95.72 639.00 98.00
C 645.18 97.37 652.58 99.28 658.00 97.00 Z"/>
</g>
<g fill="#F5FF12" fill-opacity="0.57" stroke="None">
<path d="
M 762.00 98.00 
C 763.96 97.81 766.03 98.03 768.00 98.00
C 770.48 97.97 773.15 97.24 775.00 97.00
C 770.77 97.12 763.43 97.62 762.00 98.00 Z"/>
</g>
<g fill="#F4FF12" fill-opacity="0.41" stroke="None">
<path d="
M 711.00 99.00 
C 722.00 99.00 733.00 99.00 744.00 99.00
C 745.67 99.00 747.33 99.00 749.00 99.00
C 737.13 97.85 722.94 97.84 711.00 99.00 Z"/>
</g>
<g fill="#D9F108" fill-opacity="1.00" stroke="None">
<path d="
M 749.00 99.00 
C 747.33 99.00 745.67 99.00 744.00 99.00
C 732.91 100.18 721.96 101.12 711.00 99.00
C 675.47 102.44 638.38 98.12 603.00 100.00 C 567.62 101.88 530.94 97.56 495.00 99.00 C 459.06 100.44 421.96 98.46 386.00 99.00 C 350.04 99.54 312.72 99.00 277.00 99.00 C 241.28 99.00 206.12 99.18 172.00 100.00
C 169.22 100.45 165.55 102.63 162.00 103.00 C 158.45 103.37 154.38 102.99 154.00 103.00
C 152.42 103.61 150.26 104.53 149.00 105.00
C 149.38 105.10 150.84 106.43 151.00 107.00
C 147.25 107.22 144.40 110.00 141.00 111.00
C 139.25 112.19 136.69 113.80 135.00 115.00
C 115.27 129.09 98.05 150.85 92.00 174.00
C 91.17 173.59 90.13 173.03 90.00 172.00
C 89.67 172.90 88.50 173.86 88.00 176.00
C 88.79 175.27 89.94 174.98 91.00 175.00
C 92.56 181.82 87.91 186.55 88.00 193.00
C 87.92 195.26 88.17 198.89 88.00 202.00
C 85.87 241.27 88.99 280.64 88.00 320.00 C 87.01 359.36 88.53 399.66 88.00 439.00 C 87.47 478.34 88.43 518.90 88.00 558.00 C 87.57 597.10 88.61 638.51 88.00 677.00 C 87.39 715.49 89.19 758.91 88.00 796.00 C 86.81 833.09 86.89 867.54 107.92 895.08 C 128.96 922.61 151.63 935.80 183.00 937.00
C 202.18 937.73 222.58 937.21 241.00 938.00
C 249.18 937.56 257.52 937.17 266.00 937.00
C 282.75 936.67 299.81 936.43 316.00 938.00
C 345.08 938.00 374.50 936.42 404.00 937.00 C 433.50 937.58 463.46 936.86 493.00 937.00 C 522.54 937.14 552.49 937.22 582.00 937.00 C 611.51 936.78 641.64 937.72 671.00 937.00 C 700.36 936.28 731.00 938.69 760.00 937.00 C 789.00 935.31 819.70 941.95 847.00 934.00
C 851.78 932.61 857.95 931.30 862.25 928.25 C 866.54 925.19 873.25 925.42 876.00 925.00
C 879.31 923.06 881.13 921.34 884.00 919.00
C 891.14 905.85 903.40 900.34 911.25 885.25 C 919.11 870.17 923.39 854.25 924.33 835.33 C 925.27 816.41 925.01 792.21 925.00 772.00 C 924.99 751.79 925.00 729.68 925.00 709.00 C 925.00 688.32 925.00 666.94 925.00 646.00 C 925.00 625.06 925.00 603.04 925.00 582.00 C 925.00 560.96 924.99 540.06 925.00 519.00 C 925.01 497.94 924.98 477.11 925.00 456.00 C 925.02 434.89 924.96 413.12 925.00 392.00 C 925.04 370.88 924.91 350.10 925.00 329.00 C 925.09 307.90 924.81 287.16 925.00 266.00 C 925.20 244.84 924.58 223.19 925.00 202.00
C 924.12 196.61 922.79 189.89 922.00 184.00
C 921.31 178.82 919.13 174.56 922.00 170.00
C 917.61 167.94 914.23 157.09 912.00 151.00
C 906.34 149.39 901.13 137.21 898.00 133.00
C 892.65 125.81 884.10 119.12 877.00 114.00
C 875.15 112.67 872.84 112.03 871.00 111.00
C 859.22 104.36 848.73 102.35 836.00 99.00
C 813.82 96.52 789.35 100.07 768.00 98.00
C 766.03 98.03 763.96 97.81 762.00 98.00
C 758.34 98.35 753.41 99.00 749.00 99.00
M 739.00 740.00 
C 735.56 739.93 733.26 738.46 731.00 738.00
C 712.79 736.76 695.68 741.25 678.00 740.00 C 660.32 738.75 643.12 739.00 625.00 739.00
C 615.88 739.88 605.05 739.88 596.00 739.00
C 583.33 739.00 570.67 739.00 558.00 739.00
C 514.97 743.16 468.96 740.02 425.00 740.00 C 381.04 739.98 334.05 743.17 291.00 739.00
C 284.33 739.00 277.67 739.00 271.00 739.00
C 267.04 739.38 263.04 740.08 259.00 739.00
C 243.93 734.97 248.67 717.69 254.77 707.77 C 260.87 697.85 267.87 689.23 272.75 678.75 C 277.64 668.28 284.06 657.86 289.75 647.75 C 295.45 637.65 300.72 627.71 306.75 617.75 C 312.79 607.80 317.81 596.85 323.92 586.92 C 330.02 576.99 335.65 567.42 341.25 557.25 C 346.86 547.09 352.59 536.64 358.75 526.75 C 364.92 516.87 369.92 506.78 375.75 496.75 C 381.59 486.72 387.43 476.10 392.97 465.97 C 398.51 455.85 404.16 445.91 409.92 435.92 C 415.68 425.93 421.04 416.17 427.31 406.31 C 433.57 396.44 438.99 385.82 444.30 375.30 C 449.62 364.79 456.58 356.52 461.92 345.92 C 467.25 335.31 472.07 325.27 478.92 314.92 C 485.77 304.57 488.49 296.07 496.25 285.25 C 504.02 274.44 520.65 280.45 524.77 292.23 C 528.89 304.01 534.21 313.05 540.92 323.08 C 547.62 333.11 551.74 343.94 557.92 354.08 C 564.10 364.22 569.16 373.83 574.92 384.08 C 580.68 394.33 585.72 405.20 591.97 415.03 C 598.22 424.85 603.17 435.08 608.92 445.08 C 614.68 455.08 620.45 464.98 625.78 475.22 C 631.10 485.47 637.85 495.52 643.26 505.74 C 648.66 515.97 654.33 525.71 660.25 535.75 C 666.17 545.78 671.77 556.20 677.75 566.25 C 683.73 576.29 688.98 586.04 694.77 596.23 C 700.56 606.42 705.18 617.07 711.92 627.08 C 718.67 637.08 722.42 646.83 728.32 657.68 C 734.23 668.53 741.11 675.66 746.25 687.75 C 751.40 699.83 758.87 703.38 762.99 718.01 C 767.12 732.63 753.45 740.29 739.00 740.00 Z"/>
</g>
<g fill="#ECFF12" fill-opacity="0.88" stroke="None">
<path d="
M 744.00 99.00 
C 733.00 99.00 722.00 99.00 711.00 99.00
C 721.96 101.12 732.91 100.18 744.00 99.00 Z"/>
</g>
<g fill="#ECF912" fill-opacity="0.44" stroke="None">
<path d="
M 154.00 103.00 
C 154.38 102.99 158.45 103.37 162.00 103.00 C 165.55 102.63 169.22 100.45 172.00 100.00
C 170.27 100.04 168.81 99.92 167.08 101.07 C 165.34 102.21 164.03 100.00 164.00 100.00
C 160.15 100.94 157.20 101.77 154.00 103.00 Z"/>
</g>
<g fill="#E2EC11" fill-opacity="0.32" stroke="None">
<path d="
M 138.00 110.00 
C 138.97 110.02 139.80 110.99 141.00 111.00
C 144.40 110.00 147.25 107.22 151.00 107.00
C 150.84 106.43 149.38 105.10 149.00 105.00
C 144.72 106.60 141.78 107.64 138.00 110.00 Z"/>
</g>
<g fill="#F2FF13" fill-opacity="0.57" stroke="None">
<path d="
M 871.00 111.00 
C 872.84 112.03 875.15 112.67 877.00 114.00
C 877.00 114.00 876.92 111.07 876.00 110.00
C 876.00 110.00 875.46 110.13 875.00 110.00
C 873.02 109.42 870.50 110.94 871.00 111.00 Z"/>
</g>
<g fill="#ECF911" fill-opacity="0.50" stroke="None">
<path d="
M 136.00 111.00 
C 136.20 110.65 134.66 115.48 135.00 115.00
C 136.69 113.80 139.25 112.19 141.00 111.00
C 139.80 110.99 138.97 110.02 138.00 110.00
C 136.68 109.97 136.80 110.49 136.00 111.00 Z"/>
</g>
<g fill="#E7F615" fill-opacity="0.33" stroke="None">
<path d="
M 877.00 114.00 
C 884.10 119.12 892.65 125.81 898.00 133.00
C 901.83 136.41 905.47 139.44 909.00 143.00
C 900.70 131.02 889.99 115.95 876.00 110.00
C 876.92 111.07 877.00 114.00 877.00 114.00 Z"/>
</g>
<g fill="#EAF612" fill-opacity="0.37" stroke="None">
<path d="
M 90.00 172.00 
C 90.13 173.03 91.17 173.59 92.00 174.00
C 98.05 150.85 115.27 129.09 135.00 115.00
C 134.66 115.48 136.20 110.65 136.00 111.00
C 124.91 118.11 117.34 126.71 107.77 136.77 C 98.20 146.83 94.72 159.09 90.00 172.00 Z"/>
</g>
<g fill="#EBFB12" fill-opacity="0.50" stroke="None">
<path d="
M 912.00 151.00 
C 912.16 151.05 912.96 150.36 914.00 151.00
C 912.16 147.97 911.15 145.17 909.00 143.00
C 905.47 139.44 901.83 136.41 898.00 133.00
C 901.13 137.21 906.34 149.39 912.00 151.00 Z"/>
</g>
<g fill="#E6F212" fill-opacity="0.34" stroke="None">
<path d="
M 912.00 151.00 
C 914.23 157.09 917.61 167.94 922.00 170.00
C 919.13 174.56 921.31 178.82 922.00 184.00
C 922.64 185.72 927.12 186.57 924.00 190.00
C 925.06 188.88 925.84 189.52 927.00 190.00
C 926.50 175.37 920.90 162.37 914.00 151.00
C 912.96 150.36 912.16 151.05 912.00 151.00 Z"/>
</g>
<g fill="#EAF811" fill-opacity="0.38" stroke="None">
<path d="
M 88.00 176.00 
C 86.72 181.49 86.23 185.97 86.00 192.00
C 86.16 193.07 87.90 195.26 87.00 197.00
C 88.60 196.47 87.72 194.25 88.00 193.00
C 87.91 186.55 92.56 181.82 91.00 175.00
C 89.94 174.98 88.79 175.27 88.00 176.00 Z"/>
</g>
<g fill="#EBF910" fill-opacity="0.66" stroke="None">
<path d="
M 925.00 202.00 
C 925.08 197.99 925.91 196.14 927.00 193.00
C 926.80 192.10 927.03 190.93 927.00 190.00
C 925.84 189.52 925.06 188.88 924.00 190.00
C 927.12 186.57 922.64 185.72 922.00 184.00
C 922.79 189.89 924.12 196.61 925.00 202.00 Z"/>
</g>
<g fill="#D4DD0E" fill-opacity="0.22" stroke="None">
<path d="
M 84.00 216.00 
C 84.55 221.67 84.54 228.40 84.00 234.00
C 84.00 237.75 82.88 244.14 85.00 247.00
C 84.21 239.70 87.26 231.61 86.00 224.00 C 84.74 216.39 86.59 208.56 88.00 202.00
C 88.17 198.89 87.92 195.26 88.00 193.00
C 87.72 194.25 88.60 196.47 87.00 197.00
C 87.90 195.26 86.16 193.07 86.00 192.00
C 85.69 200.20 84.00 207.54 84.00 216.00 Z"/>
</g>
<g fill="#F2FD11" fill-opacity="0.33" stroke="None">
<path d="
M 925.00 202.00 
C 924.58 223.19 925.20 244.84 925.00 266.00 C 924.81 287.16 925.09 307.90 925.00 329.00 C 924.91 350.10 925.04 370.88 925.00 392.00 C 924.96 413.12 925.02 434.89 925.00 456.00 C 924.98 477.11 925.01 497.94 925.00 519.00 C 924.99 540.06 925.00 560.96 925.00 582.00 C 925.00 603.04 925.00 625.06 925.00 646.00 C 925.00 666.94 925.00 688.32 925.00 709.00 C 925.00 729.68 924.99 751.79 925.00 772.00 C 925.01 792.21 925.27 816.41 924.33 835.33 C 923.39 854.25 919.11 870.17 911.25 885.25 C 903.40 900.34 891.14 905.85 884.00 919.00
C 901.39 904.86 913.68 893.75 921.74 870.74 C 929.81 847.74 927.93 817.85 928.00 791.00 C 928.07 764.15 928.00 733.78 928.00 706.00 C 928.00 678.22 928.06 648.21 928.00 620.00 C 927.94 591.79 928.17 562.34 928.00 534.00 C 927.83 505.66 928.40 477.36 928.00 449.00 C 927.60 420.64 928.88 391.28 928.00 363.00 C 927.12 334.72 929.95 304.94 928.00 277.00 C 926.05 249.06 932.84 219.60 927.00 193.00
C 925.91 196.14 925.08 197.99 925.00 202.00 Z"/>
</g>
<g fill="#EFFC13" fill-opacity="0.46" stroke="None">
<path d="
M 85.00 247.00 
C 85.00 247.00 85.00 247.50 85.00 248.00
C 85.00 255.00 85.00 262.00 85.00 269.00
C 85.00 272.67 85.00 276.33 85.00 280.00
C 85.00 281.00 85.00 282.00 85.00 283.00
C 85.00 287.00 85.00 291.00 85.00 295.00
C 85.00 302.00 85.00 309.00 85.00 316.00
C 85.00 316.00 85.00 316.50 85.00 317.00
C 85.00 321.65 85.18 326.35 85.00 331.00
C 84.76 337.41 84.00 343.40 84.00 350.00
C 84.42 354.39 85.00 359.93 85.00 365.00
C 85.00 365.00 85.00 365.50 85.00 366.00
C 85.00 380.00 85.00 394.00 85.00 408.00
C 85.00 408.50 85.00 409.50 85.00 410.00
C 85.00 423.67 85.00 437.33 85.00 451.00
C 85.00 452.67 85.00 454.33 85.00 456.00
C 85.00 461.42 85.94 468.44 84.00 473.00
C 84.00 473.50 84.00 474.50 84.00 475.00
C 85.55 478.64 85.00 483.66 85.00 488.00
C 85.00 488.50 85.00 489.50 85.00 490.00
C 85.00 505.00 85.00 520.00 85.00 535.00
C 85.00 536.00 85.00 537.00 85.00 538.00
C 85.00 545.67 85.00 553.33 85.00 561.00
C 85.00 562.00 85.00 563.00 85.00 564.00
C 85.00 575.64 86.36 589.25 84.00 600.00
C 84.00 601.00 84.00 602.00 84.00 603.00
C 85.52 609.91 85.00 618.38 85.00 626.00
C 85.00 626.00 85.00 626.50 85.00 627.00
C 85.00 636.00 85.00 645.00 85.00 654.00
C 85.00 659.67 85.00 665.33 85.00 671.00
C 85.00 675.00 85.00 679.00 85.00 683.00
C 85.00 683.50 85.00 684.50 85.00 685.00
C 85.00 687.66 85.07 690.34 85.00 693.00
C 86.74 711.01 84.95 731.38 86.00 750.00 C 87.05 768.62 87.13 786.52 84.00 804.00
C 84.00 833.71 84.26 869.32 102.08 890.92 C 119.90 912.52 131.89 934.40 162.00 936.00
C 164.28 936.12 165.41 936.84 168.00 938.00
C 173.51 939.22 178.05 939.68 184.00 940.00
C 184.55 939.86 186.52 938.08 187.00 938.00
C 185.59 937.78 183.90 937.18 183.00 937.00
C 151.63 935.80 128.96 922.61 107.92 895.08 C 86.89 867.54 86.81 833.09 88.00 796.00 C 89.19 758.91 87.39 715.49 88.00 677.00 C 88.61 638.51 87.57 597.10 88.00 558.00 C 88.43 518.90 87.47 478.34 88.00 439.00 C 88.53 399.66 87.01 359.36 88.00 320.00 C 88.99 280.64 85.87 241.27 88.00 202.00
C 86.59 208.56 84.74 216.39 86.00 224.00 C 87.26 231.61 84.21 239.70 85.00 247.00 Z"/>
</g>
<g fill="#91BF00" fill-opacity="0.03" stroke="None">
<path d="
M 84.00 234.00 
C 84.54 228.40 84.55 221.67 84.00 216.00
C 84.00 222.00 84.00 228.00 84.00 234.00 Z"/>
</g>
<g fill="#656600" fill-opacity="0.02" stroke="None">
<path d="
M 84.00 269.00 
C 84.00 268.96 85.00 269.00 85.00 269.00
C 85.00 262.00 85.00 255.00 85.00 248.00
C 82.01 252.04 84.00 263.64 84.00 269.00 Z"/>
</g>
<g fill="#006600" fill-opacity="0.02" stroke="None">
<path d="
M 85.00 280.00 
C 85.00 276.33 85.00 272.67 85.00 269.00
C 85.00 269.00 84.00 268.96 84.00 269.00
C 84.00 272.90 84.28 276.73 85.00 280.00 Z"/>
</g>
<g fill="#000000" fill-opacity="1.00" stroke="None">
<path d="
M 259.00 739.00 
C 262.83 739.53 267.13 739.00 271.00 739.00
C 277.67 739.00 284.33 739.00 291.00 739.00
C 380.00 739.00 469.00 739.00 558.00 739.00
C 570.67 739.00 583.33 739.00 596.00 739.00
C 605.67 739.00 615.33 739.00 625.00 739.00
C 643.12 739.00 660.32 738.75 678.00 740.00 C 695.68 741.25 712.79 736.76 731.00 738.00
C 733.92 738.20 736.67 739.62 739.00 740.00
C 753.45 740.29 767.12 732.63 762.99 718.01 C 758.87 703.38 751.40 699.83 746.25 687.75 C 741.11 675.66 734.23 668.53 728.32 657.68 C 722.42 646.83 718.67 637.08 711.92 627.08 C 705.18 617.07 700.56 606.42 694.77 596.23 C 688.98 586.04 683.73 576.29 677.75 566.25 C 671.77 556.20 666.17 545.78 660.25 535.75 C 654.33 525.71 648.66 515.97 643.26 505.74 C 637.85 495.52 631.10 485.47 625.78 475.22 C 620.45 464.98 614.68 455.08 608.92 445.08 C 603.17 435.08 598.22 424.85 591.97 415.03 C 585.72 405.20 580.68 394.33 574.92 384.08 C 569.16 373.83 564.10 364.22 557.92 354.08 C 551.74 343.94 547.62 333.11 540.92 323.08 C 534.21 313.05 528.89 304.01 524.77 292.23 C 520.65 280.45 504.02 274.44 496.25 285.25 C 488.49 296.07 485.77 304.57 478.92 314.92 C 472.07 325.27 467.25 335.31 461.92 345.92 C 456.58 356.52 449.62 364.79 444.30 375.30 C 438.99 385.82 433.57 396.44 427.31 406.31 C 421.04 416.17 415.68 425.93 409.92 435.92 C 404.16 445.91 398.51 455.85 392.97 465.97 C 387.43 476.10 381.59 486.72 375.75 496.75 C 369.92 506.78 364.92 516.87 358.75 526.75 C 352.59 536.64 346.86 547.09 341.25 557.25 C 335.65 567.42 330.02 576.99 323.92 586.92 C 317.81 596.85 312.79 607.80 306.75 617.75 C 300.72 627.71 295.45 637.65 289.75 647.75 C 284.06 657.86 277.64 668.28 272.75 678.75 C 267.87 689.23 260.87 697.85 254.77 707.77 C 248.67 717.69 243.93 734.97 259.00 739.00
M 664.00 711.00 
C 641.00 711.00 618.00 711.00 595.00 711.00
C 525.33 711.00 455.67 711.00 386.00 711.00
C 377.00 711.00 368.00 711.00 359.00 711.00
C 350.33 711.00 340.91 710.77 333.00 710.00
C 329.07 710.35 324.95 710.00 321.00 710.00
C 316.26 710.00 310.99 709.39 307.00 709.00
C 300.67 709.00 294.33 709.00 288.00 709.00
C 291.94 690.93 306.44 676.92 313.97 659.97 C 321.50 643.03 334.06 628.71 342.26 612.26 C 350.45 595.80 360.33 580.32 369.32 564.32 C 378.31 548.33 388.82 532.83 397.31 516.31 C 405.79 499.78 415.70 484.90 424.77 468.77 C 433.84 452.64 442.39 435.85 452.26 420.26 C 462.12 404.66 469.87 388.00 479.30 372.30 C 488.73 356.61 496.76 338.76 509.00 326.00
C 579.72 454.80 654.37 582.20 727.00 710.00
C 706.50 712.32 684.92 710.34 664.00 711.00 Z"/>
</g>
<g fill="#006600" fill-opacity="0.02" stroke="None">
<path d="
M 84.00 295.00 
C 84.00 294.96 85.00 295.00 85.00 295.00
C 85.00 291.00 85.00 287.00 85.00 283.00
C 84.23 286.53 84.00 290.78 84.00 295.00 Z"/>
</g>
<g fill="#656600" fill-opacity="0.02" stroke="None">
<path d="
M 85.00 316.00 
C 85.00 309.00 85.00 302.00 85.00 295.00
C 85.00 295.00 84.00 294.96 84.00 295.00
C 84.00 300.33 81.99 311.93 85.00 316.00 Z"/>
</g>
<g fill="#656600" fill-opacity="0.02" stroke="None">
<path d="
M 85.00 331.00 
C 85.18 326.35 85.00 321.65 85.00 317.00
C 82.30 320.65 84.78 327.28 85.00 331.00 Z"/>
</g>
<g fill="#DAF212" fill-opacity="1.00" stroke="None">
<path d="
M 307.00 709.00 
C 311.67 709.00 316.33 709.00 321.00 709.00
C 325.00 709.00 329.00 709.00 333.00 709.00
C 341.68 709.00 351.09 709.23 359.00 710.00
C 367.85 709.20 377.94 710.22 386.00 711.00
C 455.67 711.00 525.33 711.00 595.00 711.00
C 616.64 708.91 642.43 708.91 664.00 711.00
C 684.92 710.34 706.50 712.32 727.00 710.00
C 654.37 582.20 579.72 454.80 509.00 326.00
C 496.76 338.76 488.73 356.61 479.30 372.30 C 469.87 388.00 462.12 404.66 452.26 420.26 C 442.39 435.85 433.84 452.64 424.77 468.77 C 415.70 484.90 405.79 499.78 397.31 516.31 C 388.82 532.83 378.31 548.33 369.32 564.32 C 360.33 580.32 350.45 595.80 342.26 612.26 C 334.06 628.71 321.50 643.03 313.97 659.97 C 306.44 676.92 291.94 690.93 288.00 709.00
C 294.33 709.00 300.67 709.00 307.00 709.00 Z"/>
</g>
<g fill="#297F00" fill-opacity="0.02" stroke="None">
<path d="
M 85.00 365.00 
C 85.00 359.93 84.42 354.39 84.00 350.00
C 84.00 354.15 82.66 361.83 85.00 365.00 Z"/>
</g>
<g fill="#5E6600" fill-opacity="0.02" stroke="None">
<path d="
M 85.00 408.00 
C 85.00 394.00 85.00 380.00 85.00 366.00
C 81.71 370.45 84.42 381.13 84.00 387.00 C 83.58 392.87 82.84 402.92 85.00 408.00 Z"/>
</g>
<g fill="#626600" fill-opacity="0.02" stroke="None">
<path d="
M 85.00 451.00 
C 85.00 437.33 85.00 423.67 85.00 410.00
C 80.71 420.10 83.87 440.37 85.00 451.00 Z"/>
</g>
<g fill="#4F7F00" fill-opacity="0.02" stroke="None">
<path d="
M 84.00 473.00 
C 85.94 468.44 85.00 461.42 85.00 456.00
C 84.47 460.99 84.00 467.27 84.00 473.00 Z"/>
</g>
<g fill="#597F00" fill-opacity="0.02" stroke="None">
<path d="
M 85.00 488.00 
C 85.00 483.66 85.55 478.64 84.00 475.00
C 84.00 479.34 83.45 484.36 85.00 488.00 Z"/>
</g>
<g fill="#576600" fill-opacity="0.02" stroke="None">
<path d="
M 85.00 535.00 
C 85.00 520.00 85.00 505.00 85.00 490.00
C 82.35 496.24 84.49 505.82 84.00 513.00 C 83.51 520.18 83.59 528.57 85.00 535.00 Z"/>
</g>
<g fill="#5B6600" fill-opacity="0.02" stroke="None">
<path d="
M 85.00 561.00 
C 85.00 553.33 85.00 545.67 85.00 538.00
C 83.51 544.78 83.50 554.15 85.00 561.00 Z"/>
</g>
<g fill="#778A00" fill-opacity="0.02" stroke="None">
<path d="
M 84.00 600.00 
C 86.36 589.25 85.00 575.64 85.00 564.00
C 82.64 574.75 84.00 588.36 84.00 600.00 Z"/>
</g>
<g fill="#6D9000" fill-opacity="0.02" stroke="None">
<path d="
M 85.00 626.00 
C 85.00 618.38 85.52 609.91 84.00 603.00
C 84.00 608.72 81.77 621.63 85.00 626.00 Z"/>
</g>
<g fill="#506600" fill-opacity="0.02" stroke="None">
<path d="
M 85.00 654.00 
C 85.00 645.00 85.00 636.00 85.00 627.00
C 81.07 632.31 84.42 648.03 85.00 654.00 Z"/>
</g>
<g fill="#4A6600" fill-opacity="0.02" stroke="None">
<path d="
M 85.00 683.00 
C 85.00 679.00 85.00 675.00 85.00 671.00
C 84.64 674.76 83.31 679.03 85.00 683.00 Z"/>
</g>
<g fill="#699100" fill-opacity="0.02" stroke="None">
<path d="
M 84.00 699.00 
C 84.17 697.53 84.94 695.10 85.00 693.00
C 85.07 690.34 85.00 687.66 85.00 685.00
C 83.36 688.85 84.00 694.37 84.00 699.00 Z"/>
</g>
<g fill="#D8DF0C" fill-opacity="0.16" stroke="None">
<path d="
M 84.00 699.00 
C 84.00 720.23 83.05 742.19 85.00 763.00
C 85.71 770.54 85.71 779.46 85.00 787.00
C 84.49 792.44 84.00 798.19 84.00 804.00
C 87.13 786.52 87.05 768.62 86.00 750.00 C 84.95 731.38 86.74 711.01 85.00 693.00
C 84.94 695.10 84.17 697.53 84.00 699.00 Z"/>
</g>
<g fill="#555E06" fill-opacity="1.00" stroke="None">
<path d="
M 321.00 710.00 
C 320.96 710.00 321.00 709.00 321.00 709.00
C 316.33 709.00 311.67 709.00 307.00 709.00
C 310.99 709.39 316.26 710.00 321.00 710.00 Z"/>
</g>
<g fill="#737F08" fill-opacity="1.00" stroke="None">
<path d="
M 321.00 710.00 
C 324.95 710.00 329.07 710.35 333.00 710.00
C 332.96 710.00 333.00 709.00 333.00 709.00
C 329.00 709.00 325.00 709.00 321.00 709.00
C 321.00 709.00 320.96 710.00 321.00 710.00 Z"/>
</g>
<g fill="#97A70B" fill-opacity="1.00" stroke="None">
<path d="
M 333.00 710.00 
C 341.60 710.78 350.40 709.22 359.00 710.00
C 351.09 709.23 341.68 709.00 333.00 709.00
C 333.00 709.00 332.96 710.00 333.00 710.00 Z"/>
</g>
<g fill="#525B04" fill-opacity="1.00" stroke="None">
<path d="
M 359.00 711.00 
C 358.96 711.00 359.00 710.00 359.00 710.00
C 350.40 709.22 341.60 710.78 333.00 710.00
C 340.91 710.77 350.33 711.00 359.00 711.00 Z"/>
</g>
<g fill="#768208" fill-opacity="1.00" stroke="None">
<path d="
M 359.00 711.00 
C 368.00 711.00 377.00 711.00 386.00 711.00
C 377.94 710.22 367.85 709.20 359.00 710.00
C 359.00 710.00 358.96 711.00 359.00 711.00 Z"/>
</g>
<g fill="#808F09" fill-opacity="1.00" stroke="None">
<path d="
M 595.00 711.00 
C 618.00 711.00 641.00 711.00 664.00 711.00
C 642.43 708.91 616.64 708.91 595.00 711.00 Z"/>
</g>
<g fill="#77870A" fill-opacity="1.00" stroke="None">
<path d="
M 739.00 740.00 
C 736.67 739.62 733.92 738.20 731.00 738.00
C 733.26 738.46 735.56 739.93 739.00 740.00 Z"/>
</g>
<g fill="#647208" fill-opacity="1.00" stroke="None">
<path d="
M 271.00 739.00 
C 267.13 739.00 262.83 739.53 259.00 739.00
C 263.04 740.08 267.04 739.38 271.00 739.00 Z"/>
</g>
<g fill="#576407" fill-opacity="1.00" stroke="None">
<path d="
M 558.00 739.00 
C 469.00 739.00 380.00 739.00 291.00 739.00
C 334.05 743.17 381.04 739.98 425.00 740.00 C 468.96 740.02 514.97 743.16 558.00 739.00 Z"/>
</g>
<g fill="#596507" fill-opacity="1.00" stroke="None">
<path d="
M 625.00 739.00 
C 615.33 739.00 605.67 739.00 596.00 739.00
C 605.05 739.88 615.88 739.88 625.00 739.00 Z"/>
</g>
<g fill="#4A6600" fill-opacity="0.02" stroke="None">
<path d="
M 85.00 787.00 
C 85.71 779.46 85.71 770.54 85.00 763.00
C 84.98 769.89 84.98 780.04 85.00 787.00 Z"/>
</g>
<g fill="#EEF915" fill-opacity="0.41" stroke="None">
<path d="
M 847.00 934.00 
C 848.09 934.28 848.38 935.73 849.00 936.00
C 859.52 933.27 866.71 930.46 876.00 925.00
C 873.25 925.42 866.54 925.19 862.25 928.25 C 857.95 931.30 851.78 932.61 847.00 934.00 Z"/>
</g>
<g fill="#EEFB16" fill-opacity="0.28" stroke="None">
<path d="
M 316.00 938.00 
C 299.45 938.00 281.75 938.52 266.00 937.00
C 257.52 937.17 249.18 937.56 241.00 938.00
C 223.56 938.95 204.34 940.67 187.00 938.00
C 186.52 938.08 184.55 939.86 184.00 940.00
C 186.53 940.14 188.68 940.80 191.00 941.00
C 204.48 940.88 219.77 939.79 234.00 940.00
C 274.26 940.59 315.96 939.86 357.00 940.00 C 398.04 940.14 439.95 940.22 481.00 940.00 C 522.05 939.78 564.12 940.73 605.00 940.00 C 645.88 939.27 688.60 941.73 729.00 940.00 C 769.40 938.27 811.84 945.63 849.00 936.00
C 848.38 935.73 848.09 934.28 847.00 934.00
C 819.70 941.95 789.00 935.31 760.00 937.00 C 731.00 938.69 700.36 936.28 671.00 937.00 C 641.64 937.72 611.51 936.78 582.00 937.00 C 552.49 937.22 522.54 937.14 493.00 937.00 C 463.46 936.86 433.50 937.58 404.00 937.00 C 374.50 936.42 345.08 938.00 316.00 938.00 Z"/>
</g>
<g fill="#EFF718" fill-opacity="0.15" stroke="None">
<path d="
M 162.00 936.00 
C 163.31 936.31 165.95 937.55 168.00 938.00
C 165.41 936.84 164.28 936.12 162.00 936.00 Z"/>
</g>
<g fill="#EFFF10" fill-opacity="0.61" stroke="None">
<path d="
M 266.00 937.00 
C 281.75 938.52 299.45 938.00 316.00 938.00
C 299.81 936.43 282.75 936.67 266.00 937.00 Z"/>
</g>
<g fill="#ECFF11" fill-opacity="0.80" stroke="None">
<path d="
M 187.00 938.00 
C 204.34 940.67 223.56 938.95 241.00 938.00
C 222.58 937.21 202.18 937.73 183.00 937.00
C 183.90 937.18 185.59 937.78 187.00 938.00 Z"/>
</g>
<g fill="#DAF117" fill-opacity="0.07" stroke="None">
<path d="
M 191.00 941.00 
C 193.62 941.23 196.37 941.00 199.00 941.00
C 203.67 941.00 208.33 941.00 213.00 941.00
C 214.33 941.00 215.67 941.00 217.00 941.00
C 220.99 941.00 225.02 941.16 229.00 941.00
C 230.82 940.93 232.78 940.18 234.00 940.00
C 219.77 939.79 204.48 940.88 191.00 941.00 Z"/>
</g>
<g fill="#6F7F00" fill-opacity="0.02" stroke="None">
<path d="
M 213.00 941.00 
C 208.33 941.00 203.67 941.00 199.00 941.00
C 203.40 941.43 208.49 941.62 213.00 941.00 Z"/>
</g>
<g fill="#6B6800" fill-opacity="0.02" stroke="None">
<path d="
M 229.00 941.00 
C 225.02 941.16 220.99 941.00 217.00 941.00
C 220.90 941.53 225.03 941.58 229.00 941.00 Z"/>
</g>
</svg>